<?xml version="1.0" encoding="UTF-8" standalone="no"?>
<!DOCTYPE svg PUBLIC "-//W3C//DTD SVG 1.1//EN" "http://www.w3.org/Graphics/SVG/1.1/DTD/svg11.dtd">
<svg version="1.1" xmlns="http://www.w3.org/2000/svg" xmlns:xlink="http://www.w3.org/1999/xlink" preserveAspectRatio="xMidYMid meet" viewBox="0 0 640 640" width="640" height="640"><defs><path d="M0 0L640 0L640 640L0 640L0 0Z" id="b4fFF2Zb3p"></path><path d="M550.69 312.87C550.69 440.74 446.21 544.55 317.52 544.55C188.84 544.55 84.36 440.74 84.36 312.87C84.36 185 188.84 81.19 317.52 81.19C446.21 81.19 550.69 185 550.69 312.87Z" id="d1dFda1Y4P"></path><path d="M487.3 315.42C487.3 409.96 411.23 486.71 317.52 486.71C223.82 486.71 147.75 409.96 147.75 315.42C147.75 220.88 223.82 144.13 317.52 144.13C411.23 144.13 487.3 220.88 487.3 315.42Z" id="b4sra75hgc"></path><path d="M74.08 286.53L158.78 286.53L158.78 329.39L74.08 329.39L74.08 286.53Z" id="a5b2muNPEM"></path><path d="M116.32 453.07L183.51 401.51L209.6 435.51L142.41 487.07L116.32 453.07Z" id="a1oW6bdvUd"></path><path d="M148.73 137.68L212.65 193.24L184.53 225.59L120.61 170.02L148.73 137.68Z" id="bykfmPb1L"></path><path d="M476.73 286.53L561.43 286.53L561.43 329.39L476.73 329.39L476.73 286.53Z" id="b2HxtVJmdF"></path><path d="M413.98 184.09L480.54 131.72L507.04 165.4L440.48 217.77L413.98 184.09Z" id="d519k8U2qQ"></path><path d="M465.18 393.71L534.24 442.75L509.42 477.69L440.37 428.66L465.18 393.71Z" id="a13Wyy4pIm"></path><path d="M215.99 217.77L419.06 217.77L419.06 260.63L215.99 260.63L215.99 217.77Z" id="eyjTi4X8l"></path><path d="M215.99 281.3L419.06 281.3L419.06 324.16L215.99 324.16L215.99 281.3Z" id="k1XtLFFBSj"></path><path d="M215.99 343.14L419.06 343.14L419.06 386L215.99 386L215.99 343.14Z" id="d3unxNDaAp"></path></defs><g><g><g><use xlink:href="#b4fFF2Zb3p" opacity="1" fill="#1099e1" fill-opacity="1"></use></g><g><use xlink:href="#d1dFda1Y4P" opacity="1" fill="#ffffff" fill-opacity="1"></use></g><g><use xlink:href="#b4sra75hgc" opacity="1" fill="#1099e1" fill-opacity="1"></use></g><g><use xlink:href="#a5b2muNPEM" opacity="1" fill="#1099e1" fill-opacity="1"></use></g><g><use xlink:href="#a1oW6bdvUd" opacity="1" fill="#1099e1" fill-opacity="1"></use></g><g><use xlink:href="#bykfmPb1L" opacity="1" fill="#1099e1" fill-opacity="1"></use></g><g><use xlink:href="#b2HxtVJmdF" opacity="1" fill="#1099e1" fill-opacity="1"></use></g><g><use xlink:href="#d519k8U2qQ" opacity="1" fill="#1099e1" fill-opacity="1"></use></g><g><use xlink:href="#a13Wyy4pIm" opacity="1" fill="#1099e1" fill-opacity="1"></use></g><g><use xlink:href="#eyjTi4X8l" opacity="1" fill="#f6f6f6" fill-opacity="1"></use></g><g><use xlink:href="#k1XtLFFBSj" opacity="1" fill="#f6f6f6" fill-opacity="1"></use></g><g><use xlink:href="#d3unxNDaAp" opacity="1" fill="#f6f6f6" fill-opacity="1"></use></g></g></g></svg>