<?xml version="1.0" encoding="UTF-8" standalone="no"?>
<!DOCTYPE svg PUBLIC "-//W3C//DTD SVG 1.1//EN" "http://www.w3.org/Graphics/SVG/1.1/DTD/svg11.dtd">
<svg version="1.1" xmlns="http://www.w3.org/2000/svg" xmlns:xlink="http://www.w3.org/1999/xlink" preserveAspectRatio="xMidYMid meet" viewBox="0 0 640 640" width="640" height="640"><defs><path d="M0 0L640 0L640 640L0 640L0 0Z" id="ct3i6WAwA"></path><path d="M550.69 312.87C550.69 440.74 446.21 544.55 317.52 544.55C188.84 544.55 84.36 440.74 84.36 312.87C84.36 185 188.84 81.19 317.52 81.19C446.21 81.19 550.69 185 550.69 312.87Z" id="d1dFda1Y4P"></path><path d="M522.92 314.46C522.92 427.3 431.53 518.91 318.96 518.91C206.39 518.91 115 427.3 115 314.46C115 201.61 206.39 110 318.96 110C431.53 110 522.92 201.61 522.92 314.46Z" id="d3mL5WrgsP"></path><path d="M299.21 148.91L329.9 148.91L329.9 314.46L299.21 314.46L299.21 148.91Z" id="bN4bxL7lK"></path><path d="M299.21 310.14L495.25 310.14L495.25 338.86L299.21 338.86L299.21 310.14Z" id="b1gwR2nO8"></path></defs><g><g><g><use xlink:href="#ct3i6WAwA" opacity="1" fill="#e1d610" fill-opacity="1"></use></g><g><use xlink:href="#d1dFda1Y4P" opacity="1" fill="#ffffff" fill-opacity="1"></use></g><g><use xlink:href="#d3mL5WrgsP" opacity="1" fill="#e1d610" fill-opacity="1"></use></g><g><use xlink:href="#bN4bxL7lK" opacity="1" fill="#ffffff" fill-opacity="1"></use></g><g><use xlink:href="#b1gwR2nO8" opacity="1" fill="#ffffff" fill-opacity="1"></use></g></g></g></svg>