<?xml version="1.0" encoding="UTF-8" standalone="no"?>
<!DOCTYPE svg PUBLIC "-//W3C//DTD SVG 1.1//EN" "http://www.w3.org/Graphics/SVG/1.1/DTD/svg11.dtd">
<svg version="1.1" xmlns="http://www.w3.org/2000/svg" xmlns:xlink="http://www.w3.org/1999/xlink" preserveAspectRatio="xMidYMid meet" viewBox="0 0 640 640" width="640" height="640"><defs><path d="M0 0L640 0L640 640L0 640L0 0Z" id="cD6XJLgNW"></path><path d="M323.47 99.41C334.52 99.41 343.47 108.37 343.47 119.41C343.47 177.86 343.47 333.21 343.47 391.66C343.47 402.7 334.52 411.66 323.47 411.66C311.96 411.66 297.43 411.66 285.92 411.66C274.87 411.66 265.92 402.7 265.92 391.66C265.92 333.21 265.92 177.86 265.92 119.41C265.92 108.37 274.87 99.41 285.92 99.41C297.43 99.41 311.96 99.41 323.47 99.41Z" id="bnGco7lwr"></path><mask id="maskb3ZUmwlyCA" x="265.92" y="99.41" width="77.55" height="312.24" maskUnits="userSpaceOnUse"><rect x="265.92" y="99.41" width="77.55" height="312.24" fill="white"></rect><use xlink:href="#bnGco7lwr" opacity="1" fill="black"></use></mask><path d="M326.02 447.37C337.07 447.37 346.02 456.33 346.02 467.37C346.02 479.49 346.02 495.86 346.02 507.98C346.02 519.03 337.07 527.98 326.02 527.98C313.49 527.98 295.9 527.98 283.37 527.98C272.32 527.98 263.37 519.03 263.37 507.98C263.37 495.86 263.37 479.49 263.37 467.37C263.37 456.33 272.32 447.37 283.37 447.37C295.9 447.37 313.49 447.37 326.02 447.37Z" id="j23gEV5Pgq"></path></defs><g><g><g><use xlink:href="#cD6XJLgNW" opacity="1" fill="#e110c3" fill-opacity="1"></use></g><g><use xlink:href="#bnGco7lwr" opacity="1" fill="#f6f4f6" fill-opacity="1"></use><g mask="url(#maskb3ZUmwlyCA)"><use xlink:href="#bnGco7lwr" opacity="1" fill-opacity="0" stroke="#657d40" stroke-width="0" stroke-opacity="1"></use></g><g><filter id="shadow9154440" x="210.92" y="44.41" width="187.55" height="423.24" filterUnits="userSpaceOnUse" primitiveUnits="userSpaceOnUse"><feFlood></feFlood><feComposite in2="SourceAlpha" operator="out"></feComposite><feGaussianBlur stdDeviation="4.9"></feGaussianBlur><feOffset dx="0" dy="1" result="afterOffset"></feOffset><feFlood flood-color="#b2a3b7" flood-opacity="0.8"></feFlood><feComposite in2="afterOffset" operator="in"></feComposite><feMorphology operator="dilate" radius="1"></feMorphology><feComposite in2="SourceAlpha" operator="in"></feComposite></filter><path d="M323.47 99.41C334.52 99.41 343.47 108.37 343.47 119.41C343.47 177.86 343.47 333.21 343.47 391.66C343.47 402.7 334.52 411.66 323.47 411.66C311.96 411.66 297.43 411.66 285.92 411.66C274.87 411.66 265.92 402.7 265.92 391.66C265.92 333.21 265.92 177.86 265.92 119.41C265.92 108.37 274.87 99.41 285.92 99.41C297.43 99.41 311.96 99.41 323.47 99.41Z" id="azDvGtPLy" fill="white" fill-opacity="1" filter="url(#shadow9154440)"></path></g></g><g><use xlink:href="#j23gEV5Pgq" opacity="1" fill="#f6f4f6" fill-opacity="1"></use><g><filter id="shadow14659460" x="232.37" y="416.37" width="145.65" height="143.61" filterUnits="userSpaceOnUse" primitiveUnits="userSpaceOnUse"><feFlood></feFlood><feComposite in2="SourceAlpha" operator="out"></feComposite><feGaussianBlur stdDeviation="3.46"></feGaussianBlur><feOffset dx="1" dy="1" result="afterOffset"></feOffset><feFlood flood-color="#c747db" flood-opacity="0.8"></feFlood><feComposite in2="afterOffset" operator="in"></feComposite><feMorphology operator="dilate" radius="1"></feMorphology><feComposite in2="SourceAlpha" operator="in"></feComposite></filter><path d="M326.02 447.37C337.07 447.37 346.02 456.33 346.02 467.37C346.02 479.49 346.02 495.86 346.02 507.98C346.02 519.03 337.07 527.98 326.02 527.98C313.49 527.98 295.9 527.98 283.37 527.98C272.32 527.98 263.37 519.03 263.37 507.98C263.37 495.86 263.37 479.49 263.37 467.37C263.37 456.33 272.32 447.37 283.37 447.37C295.9 447.37 313.49 447.37 326.02 447.37Z" id="b3LsmuBwBb" fill="white" fill-opacity="1" filter="url(#shadow14659460)"></path></g></g></g></g></svg>